#!OML:ASF C:\Vicon Data\Big\jianyuan-13\jianyuan\Session 1\Capture.male.ASF
:FULLY-SPECIFIED
:DEGREES
167
root -5.640762 17.470813 -12.693599 7.762515 7.816948 2.956401
lowerback -10.348565 2.462948 -3.370491 
upperback 1.925972 3.868280 -1.759737 
thorax 7.755402 1.775593 0.682083 
lowerneck 0.282281 -4.047423 3.749592 
upperneck 14.290819 -5.196616 -3.292722 
head 4.481368 -2.508488 -1.963950 
rclavicle 0.000000 0.000000 
rhumerus -36.664925 -17.079315 -81.066105 
rradius 39.831837 
rwrist 22.873236 
rhand -19.566810 -18.769015 
rfingers 0.000000 
rthumb 6.758018 -48.641199 
lclavicle 0.000000 0.000000 
lhumerus -39.846856 29.635126 72.063071 
lradius 27.672928 
lwrist -52.240030 
lhand -18.632292 -0.182358 
lfingers 0.000000 
lthumb 7.660066 29.658924 
rfemur -30.475696 -12.855990 12.833208 
rtibia 80.048063 
rfoot -2.803845 -5.740222 
rtoes -34.814273 
lfemur -24.913917 -3.949594 -24.601764 
ltibia 25.148478 
lfoot -8.678187 2.670309 
ltoes -23.251603 
168
root -5.597824 17.477259 -12.651684 7.584003 7.608081 2.838434
lowerback -10.109308 2.404845 -3.246182 
upperback 2.004727 3.757594 -1.648280 
thorax 7.705444 1.725418 0.702431 
lowerneck 0.306161 -3.932042 3.599920 
upperneck 14.162502 -5.030660 -3.337599 
head 4.438555 -2.438117 -1.943288 
rclavicle 0.000000 0.000000 
rhumerus -36.467937 -17.021914 -80.949939 
rradius 39.943173 
rwrist 22.924492 
rhand -19.637345 -18.859987 
rfingers 0.000000 
rthumb 6.689922 -48.734294 
lclavicle 0.000000 0.000000 
lhumerus -39.705226 30.008378 72.164177 
lradius 27.555350 
lwrist -52.744856 
lhand -18.734759 -0.211098 
lfingers 0.000000 
lthumb 7.561142 29.633704 
rfemur -32.350155 -13.198362 12.948773 
rtibia 81.818474 
rfoot -3.669386 -6.389500 
rtoes -34.920337 
lfemur -24.564755 -3.892548 -24.627164 
ltibia 25.164135 
lfoot -8.924352 2.724381 
ltoes -23.791423 
169
root -5.557356 17.485230 -12.609506 7.354392 7.379891 2.775486
lowerback -9.830657 2.416975 -3.119752 
upperback 2.110221 3.749254 -1.653604 
thorax 7.666800 1.727848 0.614036 
lowerneck 0.266410 -3.888502 3.668549 
upperneck 14.044689 -4.979678 -3.322957 
head 4.404141 -2.410407 -1.946709 
rclavicle 0.000000 0.000000 
rhumerus -36.280748 -17.198163 -80.944982 
rradius 39.988980 
rwrist 22.986782 
rhand -19.653766 -18.761418 
rfingers 0.000000 
rthumb 6.674053 -48.636253 
lclavicle 0.000000 0.000000 
lhumerus -39.320999 29.678444 72.479457 
lradius 27.651552 
lwrist -52.249127 
lhand -18.297930 -0.221131 
lfingers 0.000000 
lthumb 7.982778 29.608097 
rfemur -34.138552 -13.553666 13.006161 
rtibia 83.522073 
rfoot -4.322535 -6.732861 
rtoes -34.947760 
lfemur -24.112182 -3.853249 -24.673975 
ltibia 25.190005 
lfoot -9.266813 2.709696 
ltoes -22.805483 
170
root -5.518968 17.484495 -12.585139 7.408976 7.459565 2.728035
lowerback -9.620516 2.300651 -3.004462 
upperback 2.110173 3.571815 -1.678996 
thorax 7.559189 1.649654 0.485301 
lowerneck 0.287730 -3.885969 3.964663 
upperneck 13.935538 -4.958685 -3.580838 
head 4.348380 -2.398075 -2.082201 
rclavicle 0.000000 0.000000 
rhumerus -36.121589 -17.439682 -80.928532 
rradius 40.148923 
rwrist 23.079220 
rhand -19.499054 -18.794949 
rfingers 0.000000 
rthumb 6.823456 -48.664997 
lclavicle 0.000000 0.000000 
lhumerus -39.102589 30.034518 72.285443 
lradius 27.384209 
lwrist -53.939874 
lhand -18.929733 -0.199173 
lfingers 0.000000 
lthumb 7.372974 29.652346 
rfemur -36.393062 -14.273781 13.224956 
rtibia 85.299835 
rfoot -4.733652 -7.056436 
rtoes -34.725424 
lfemur -24.091856 -3.937555 -24.742695 
ltibia 25.216727 
lfoot -9.330589 2.667968 
ltoes -22.796751 
171
root -5.484519 17.490399 -12.550119 7.179839 7.259995 2.636878
lowerback -9.269712 2.281083 -2.909364 
upperback 2.213792 3.519669 -1.641564 
thorax 7.472607 1.629107 0.449902 
lowerneck 0.229246 -3.858071 3.981342 
upperneck 13.852814 -4.916198 -3.662537 
head 4.329246 -2.381398 -2.111269 
rclavicle 0.000000 0.000000 
rhumerus -35.884048 -17.416512 -80.976880 
rradius 40.278035 
rwrist 22.855570 
rhand -19.714795 -18.949639 
rfingers 0.000000 
rthumb 6.615110 -48.826263 
lclavicle 0.000000 0.000000 
lhumerus -38.667528 29.584091 72.783909 
lradius 27.522838 
lwrist -53.153648 
lhand -18.618530 -0.267464 
lfingers 0.000000 
lthumb 7.673374 29.573308 
rfemur -38.348046 -14.656189 13.427334 
rtibia 86.974514 
rfoot -5.006898 -7.340233 
rtoes -35.297525 
lfemur -23.674637 -3.621151 -24.819981 
ltibia 25.190205 
lfoot -9.455312 2.489668 
ltoes -23.125484 
172
root -5.451709 17.497065 -12.515761 7.025194 7.141597 2.606495
lowerback -9.014572 2.186898 -2.859143 
upperback 2.305780 3.380433 -1.644901 
thorax 7.430547 1.564041 0.388115 
lowerneck 0.200429 -3.758546 3.999739 
upperneck 13.773971 -4.791673 -3.612319 
head 4.312547 -2.318151 -2.092587 
rclavicle 0.000000 0.000000 
rhumerus -35.662655 -17.421167 -81.036118 
rradius 40.354806 
rwrist 22.691264 
rhand -19.582480 -18.757615 
rfingers 0.000000 
rthumb 6.742881 -48.630273 
lclavicle 0.000000 0.000000 
lhumerus -38.368614 29.468961 72.952618 
lradius 27.663803 
lwrist -53.018879 
lhand -18.244621 -0.308085 
lfingers 0.000000 
lthumb 8.034274 29.519231 
rfemur -40.349490 -15.059954 13.638974 
rtibia 88.547764 
rfoot -5.106417 -7.500629 
rtoes -35.349563 
lfemur -23.268906 -3.554363 -24.915646 
ltibia 25.026503 
lfoot -9.559585 2.506994 
ltoes -23.355089 
173
root -5.415138 17.503827 -12.483716 6.910492 7.052632 2.567140
lowerback -8.762504 2.129452 -2.808340 
upperback 2.368210 3.286256 -1.604034 
thorax 7.354454 1.520600 0.379267 
lowerneck 0.179060 -3.698199 3.918434 
upperneck 13.700327 -4.717651 -3.540469 
head 4.296438 -2.283532 -2.050120 
rclavicle 0.000000 0.000000 
rhumerus -35.541980 -17.467312 -81.010025 
rradius 40.542248 
rwrist 22.385281 
rhand -19.907557 -18.708215 
rfingers 0.000000 
rthumb 6.429044 -48.590661 
lclavicle 0.000000 0.000000 
lhumerus -37.918362 29.038616 73.427493 
lradius 27.641271 
lwrist -52.592386 
lhand -18.546777 0.003216 
lfingers 0.000000 
lthumb 7.742623 29.841448 
rfemur -42.468349 -15.700228 13.858690 
rtibia 90.086300 
rfoot -4.987763 -7.382271 
rtoes -35.267791 
lfemur -22.911712 -3.584327 -24.999285 
ltibia 24.846931 
lfoot -9.674733 2.574446 
ltoes -23.498427 
174
root -5.379264 17.511920 -12.450944 6.784572 6.971870 2.435078
lowerback -8.527064 2.059083 -2.637991 
upperback 2.423278 3.162625 -1.570840 
thorax 7.287268 1.468136 0.292484 
lowerneck 0.157243 -3.595611 3.998736 
upperneck 13.659886 -4.577478 -3.603427 
head 4.289318 -2.214069 -2.081482 
rclavicle 0.000000 0.000000 
rhumerus -35.443460 -17.430552 -81.006197 
rradius 40.673864 
rwrist 22.416677 
rhand -19.827805 -18.592295 
rfingers 0.000000 
rthumb 6.506050 -48.472340 
lclavicle 0.000000 0.000000 
lhumerus -37.636082 28.955494 73.575818 
lradius 27.715194 
lwrist -52.697772 
lhand -18.481026 -0.097131 
lfingers 0.000000 
lthumb 7.806098 29.738758 
rfemur -44.589652 -16.167913 14.229699 
rtibia 91.574285 
rfoot -4.956563 -7.380867 
rtoes -34.898542 
lfemur -22.568772 -3.523409 -24.989018 
ltibia 24.707547 
lfoot -9.817728 2.552320 
ltoes -23.617070 
175
root -5.344085 17.518876 -12.416256 6.556531 6.971785 2.422996
lowerback -8.198266 1.952440 -2.668258 
upperback 2.530963 3.008990 -1.502229 
thorax 7.210496 1.390912 0.348551 
lowerneck 0.115963 -3.523558 3.881642 
upperneck 13.658590 -4.483687 -3.554055 
head 4.304359 -2.171945 -2.042522 
rclavicle 0.000000 0.000000 
rhumerus -35.318451 -17.394845 -80.972418 
rradius 40.988868 
rwrist 22.300512 
rhand -19.613714 -18.775693 
rfingers 0.000000 
rthumb 6.712728 -48.649306 
lclavicle 0.000000 0.000000 
lhumerus -37.328035 29.291196 73.633221 
lradius 27.571642 
lwrist -53.152149 
lhand -18.756816 -0.141300 
lfingers 0.000000 
lthumb 7.539885 29.704280 
rfemur -46.594597 -16.793385 14.468277 
rtibia 93.046973 
rfoot -5.037011 -7.173141 
rtoes -35.097910 
lfemur -22.044556 -3.548116 -25.103704 
ltibia 24.489793 
lfoot -9.938135 2.543657 
ltoes -23.165949 
176
root -5.313807 17.525592 -12.384942 6.448324 7.008995 2.471574
lowerback -7.968202 1.855956 -2.722817 
upperback 2.613610 2.880967 -1.524861 
thorax 7.167551 1.326801 0.330306 
lowerneck 0.050533 -3.452989 4.032386 
upperneck 13.633216 -4.389677 -3.628426 
head 4.307965 -2.122254 -2.093423 
rclavicle 0.000000 0.000000 
rhumerus -35.221247 -17.401090 -80.998488 
rradius 41.085180 
rwrist 22.380853 
rhand -20.050845 -18.627327 
rfingers 0.000000 
rthumb 6.290689 -48.513980 
lclavicle 0.000000 0.000000 
lhumerus -36.874028 29.239915 73.835365 
lradius 27.586108 
lwrist -52.985890 
lhand -18.874765 -0.162817 
lfingers 0.000000 
lthumb 7.425996 29.686872 
rfemur -48.814480 -17.436759 14.726168 
rtibia 94.530488 
rfoot -5.202363 -6.865431 
rtoes -35.050579 
lfemur -21.649672 -3.580845 -25.260909 
ltibia 24.249421 
lfoot -10.036423 2.565851 
ltoes -23.345091 
177
root -5.281464 17.535757 -12.346805 6.261377 7.028192 2.322101
lowerback -7.733350 1.791185 -2.550881 
upperback 2.690112 2.767859 -1.504936 
thorax 7.122868 1.279217 0.232566 
lowerneck -0.088569 -3.299603 4.025653 
upperneck 13.690020 -4.207412 -3.463906 
head 4.367615 -2.025727 -2.036763 
rclavicle 0.000000 0.000000 
rhumerus -35.226662 -17.469598 -81.050281 
rradius 41.303838 
rwrist 22.246167 
rhand -19.939974 -18.518578 
rfingers 0.000000 
rthumb 6.397723 -48.401994 
lclavicle 0.000000 0.000000 
lhumerus -36.355109 28.784549 74.161435 
lradius 27.644565 
lwrist -52.186918 
lhand -18.626302 -0.157026 
lfingers 0.000000 
lthumb 7.665894 29.683963 
rfemur -50.926144 -17.917636 15.197703 
rtibia 95.890338 
rfoot -5.327635 -6.645690 
rtoes -34.984131 
lfemur -21.185711 -3.460956 -25.236255 
ltibia 24.027996 
lfoot -10.036673 2.299884 
ltoes -22.665213 
178
root -5.249942 17.546198 -12.308434 6.084896 7.086567 2.158248
lowerback -7.535754 1.571207 -2.399258 
upperback 2.740700 2.439659 -1.322663 
thorax 7.066912 1.121343 0.289068 
lowerneck 0.086479 -3.094372 3.612641 
upperneck 13.621838 -3.916771 -3.403757 
head 4.328263 -1.900498 -1.927280 
rclavicle 0.000000 0.000000 
rhumerus -35.180230 -17.060143 -80.945416 
rradius 41.410942 
rwrist 22.315126 
rhand -19.996374 -18.430476 
rfingers 0.000000 
rthumb 6.343323 -48.315530 
lclavicle 0.000000 0.000000 
lhumerus -36.226338 29.103649 74.303291 
lradius 27.685663 
lwrist -52.347369 
lhand -18.816198 -0.057403 
lfingers 0.000000 
lthumb 7.482574 29.790287 
rfemur -53.050486 -18.435007 15.727394 
rtibia 97.170395 
rfoot -5.532587 -6.096903 
rtoes -35.558076 
lfemur -20.704084 -3.504078 -25.171863 
ltibia 23.743312 
lfoot -10.099444 2.299225 
ltoes -22.934206 
